<?xml version="1.0" standalone="no"?>
<!DOCTYPE svg PUBLIC "-//W3C//DTD SVG 20010904//EN"
 "http://www.w3.org/TR/2001/REC-SVG-20010904/DTD/svg10.dtd">
<svg version="1.0" xmlns="http://www.w3.org/2000/svg"
 width="512.000000pt" height="512.000000pt" viewBox="0 0 512.000000 512.000000"
 preserveAspectRatio="xMidYMid meet">

<g transform="translate(0.000000,512.000000) scale(0.100000,-0.100000)"
fill="#FFFFFF" stroke="none">
<path d="M2213 4251 c-68 -23 -117 -61 -150 -119 l-28 -47 -5 -655 -5 -655
-322 -5 c-305 -5 -323 -6 -349 -26 -69 -51 -92 -131 -58 -196 30 -57 1169
-1244 1206 -1257 39 -14 77 -14 116 0 37 13 1176 1201 1206 1257 34 65 10 145
-58 196 -26 20 -44 21 -349 26 l-322 5 -5 655 -5 655 -28 48 c-16 26 -47 61
-69 78 -76 54 -112 59 -432 59 -253 -1 -298 -3 -343 -19z"/>
<path d="M545 2339 c-204 -31 -388 -167 -479 -354 -65 -133 -66 -147 -66 -812
0 -675 1 -681 72 -823 73 -145 203 -257 370 -318 l73 -27 2012 -3 c2250 -3
2088 -8 2242 70 149 75 272 221 324 383 22 69 22 77 22 715 l0 645 -23 75
c-53 170 -167 306 -325 386 -120 62 -164 69 -427 69 -222 0 -237 -1 -275 -22
-77 -41 -115 -105 -115 -193 0 -84 53 -161 132 -194 30 -13 80 -16 240 -16
175 0 209 -3 243 -19 50 -22 101 -79 115 -128 8 -26 10 -220 8 -624 l-3 -586
-27 -39 c-15 -21 -44 -50 -65 -64 l-37 -25 -1996 0 -1997 0 -39 27 c-21 15
-50 44 -64 65 l-25 37 -3 598 c-2 574 -2 599 17 635 10 21 32 50 48 65 55 52
84 58 305 58 176 0 208 3 243 19 77 36 125 111 125 196 0 83 -39 148 -115 188
-37 20 -56 22 -245 24 -113 1 -232 -3 -265 -8z"/>
</g>
</svg>
