<svg
    xmlns="http://www.w3.org/2000/svg"
    viewBox="0 0 500 500"
    id="vector">
    <g
        id="group"
        transform="translate(-128 -128)">
        <path
            id="path"
            d="M 403 163.6 C 340.1 171.5 290.8 218.7 280.5 280.8 C 278.2 294.4 278.9 320.4 281.8 333 C 287 355.2 297 375.7 309.8 390.9 C 314.1 395.9 314.3 396.4 312.6 397.4 C 305.9 401.4 301.4 405.1 288.1 417.7 C 273.3 431.9 273.2 431.9 269.9 431 C 268 430.4 263.5 430 259.9 430 C 248.8 430 244.9 432.7 219.4 457.8 C 199.1 477.8 197.1 480 195.1 485.5 C 193.3 490.1 192.9 493.1 193.2 498.1 C 193.8 509.7 195.7 512.2 232.4 549.6 C 270.3 588.3 270.6 588.5 284 588.5 C 296.5 588.5 298.7 587 324.3 562 C 349.1 537.8 351.4 534.4 351.5 523 C 351.5 519.4 351.1 515.1 350.7 513.5 C 350 510.6 350.1 510.3 355.5 507.7 C 363.7 503.7 371 503 406.8 503 C 443.3 503 447.9 502.4 459.9 496.2 C 463.9 494.1 475.8 485.5 487.3 476.3 C 505.2 461.9 510.2 457.2 531 434.9 C 543.9 421.1 555.3 408.5 556.3 406.9 C 559 402.7 559.6 394 557.6 388.6 C 555.7 383.6 550.2 378.2 544 375 L 539.9 372.9 L 542.3 368.7 C 553.4 349.4 560.1 319.5 558.6 296.1 C 556.2 259.6 542.9 229.9 517.5 204.4 C 497.3 184.1 474.4 171.7 446 165.5 C 438.7 163.9 410.5 162.7 403 163.6 Z M 447.1 185.3 C 471.6 191.7 488.8 201.7 506.1 219.7 C 543.8 258.9 550.5 316.4 523 364.3 C 519.2 371 518.5 371.7 512 374.7 C 506.1 377.5 503.4 379.8 492.3 391.6 C 482.2 402.3 477.7 406.2 471.1 410.2 C 464.2 414.4 462.4 415.1 461.1 414.1 C 460.2 413.5 457.5 411.9 455 410.7 C 450.7 408.6 449.4 408.5 423.4 408.5 L 396.3 408.5 L 389.3 403.7 C 377.8 395.8 374.1 394.7 354.8 394.2 L 338 393.8 L 331.1 386.5 C 314.3 368.7 303.5 347.5 299.3 323.5 C 297 309.7 297.9 285.7 301.4 272.5 C 304.8 259.9 313.9 241.1 321.9 230.4 C 339.8 206.3 368.5 188.8 398.1 183.5 C 411.1 181.3 434.8 182.1 447.1 185.3 Z M 536.8 392.7 C 538.3 393.8 539.5 395.4 539.5 396.3 C 539.5 397.2 529.6 408.6 517.5 421.6 C 498.4 442.1 492.9 447.3 475.6 461.2 C 453.5 479 447.5 482.5 435.9 484 C 431.9 484.5 413.8 485 395.9 485 C 359.6 485 356.3 485.5 343.8 492.4 L 338.1 495.5 L 325.3 482.3 C 317.1 473.8 311.5 468.8 309.7 468.4 C 303.4 467 297.1 473 298.4 479.3 C 298.8 481.3 303.9 487.3 315.4 499.1 C 332.3 516.4 333.9 518.8 332.5 524.8 C 332.1 526.7 325.5 534 312.2 547.2 C 301.4 557.9 291.4 567.5 290 568.4 C 287 570.4 281.1 570.5 278.5 568.6 C 276.3 567.1 234.5 524.9 220.7 510.3 C 212.9 502.1 212 500.8 212 497.3 C 212 495.2 212.8 492.1 213.8 490.5 C 216.9 485.4 254.6 450 257.7 449.2 C 263.8 447.6 266.1 448.8 275 457.9 C 279.7 462.7 284.5 467.2 285.7 467.8 C 289.1 469.7 292.6 469.2 295.9 466.4 C 298.4 464.3 299 463.1 299 459.8 C 299 456.4 298.3 455.1 293.5 450.1 L 287.9 444.3 L 302 430.7 C 309.7 423.3 317.7 416.4 319.7 415.4 C 323 413.8 326.4 413.5 343.4 413.2 C 366.7 412.8 369.9 413.4 378.7 419.5 C 382.2 421.9 386 424.5 387.2 425.2 C 388.9 426.1 397.5 426.6 418.8 427 L 448.2 427.5 L 450.6 430.3 C 453.8 434.1 453.7 437.5 450.1 441.1 L 447.2 444 L 381.8 444 L 378.9 446.9 C 374.2 451.7 375.1 458.5 381 461.5 C 383.4 462.7 389.3 463 415.8 463 C 452.1 463 454.8 462.6 462.3 456 C 467.9 451.1 470.8 445.3 471.6 437.4 L 472.2 431.5 L 481.9 425.8 C 490.1 420.9 493.4 418.1 504.5 406.4 C 511.6 398.9 518.8 392.1 520.5 391.4 C 524.7 389.4 533.4 390.1 536.8 392.7 Z"
            fill="#FFFFFF"
            stroke-width="1"/>
        <path
            id="path_1"
            d="M 466.3 250.5 C 465.1 251.4 451.4 269.8 436 291.5 C 420.5 313.2 407.5 331.2 407 331.5 C 406.5 331.8 398.5 323.7 389.1 313.6 C 379.6 303.5 371.3 294.9 370.4 294.6 C 369.5 294.3 367.3 294 365.5 294 C 359.3 294 355 302 358.3 307.6 C 359 308.7 369.2 320.1 381 332.8 C 403.6 357.3 405.7 358.8 411.4 356.2 C 413.1 355.5 473.9 272.3 479.4 263.2 C 479.8 262.5 480.2 260.2 480.2 258.2 C 480.2 251.3 471.8 246.7 466.3 250.5 Z"
            fill="#FFFFFF"
            stroke-width="1"/>
    </g>
</svg>
