<?xml version="1.0" standalone="no"?>
<!DOCTYPE svg PUBLIC "-//W3C//DTD SVG 20010904//EN"
 "http://www.w3.org/TR/2001/REC-SVG-20010904/DTD/svg10.dtd">
<svg version="1.0" xmlns="http://www.w3.org/2000/svg"
 width="512.000000pt" height="512.000000pt" viewBox="0 0 512.000000 512.000000"
 preserveAspectRatio="xMidYMid meet">

<g transform="translate(0.000000,512.000000) scale(0.100000,-0.100000)"
fill="#FFFFFF" stroke="none">
<path d="M535 5100 c-345 -38 -593 -380 -521 -720 26 -122 76 -212 170 -305
135 -133 259 -181 451 -172 167 7 282 57 395 171 402 406 73 1088 -495 1026z
m156 -160 c160 -30 290 -148 344 -309 20 -62 21 -201 1 -257 -62 -177 -192
-289 -366 -315 -195 -30 -381 70 -469 251 -35 73 -36 78 -36 190 0 112 1 117
36 190 91 189 286 289 490 250z"/>
<path d="M2482 5099 c-133 -17 -247 -74 -347 -174 -118 -118 -176 -258 -176
-424 0 -108 13 -164 63 -270 72 -151 219 -271 388 -316 30 -8 98 -15 150 -15
171 0 307 56 426 175 77 77 139 187 164 290 17 71 14 211 -5 286 -75 291 -364
486 -663 448z m193 -164 c76 -20 163 -73 217 -134 226 -252 104 -653 -224
-735 -35 -9 -84 -16 -108 -16 -163 0 -328 103 -402 251 -171 341 147 730 517
634z"/>
<path d="M4440 5099 c-367 -40 -613 -423 -501 -779 55 -176 203 -329 378 -391
82 -30 255 -37 342 -15 91 23 154 57 165 89 13 36 -3 78 -36 97 -26 14 -33 13
-105 -12 -103 -35 -144 -41 -226 -29 -376 54 -519 514 -241 771 237 218 628
110 725 -201 37 -119 16 -269 -51 -369 -48 -72 -37 -130 27 -146 44 -11 73 7
113 73 60 100 85 190 85 313 0 124 -23 210 -82 308 -126 208 -349 318 -593
291z"/>
<path d="M1108 4036 c-27 -20 -37 -58 -24 -88 6 -15 162 -172 346 -349 184
-177 372 -357 416 -401 89 -85 112 -93 158 -57 33 26 35 74 3 110 -12 14 -155
154 -317 310 -162 155 -343 329 -401 386 -111 108 -139 121 -181 89z"/>
<path d="M3889 4030 c-43 -25 -855 -773 -863 -795 -14 -35 3 -77 38 -94 24
-11 33 -11 56 0 33 17 856 763 870 789 34 63 -40 136 -101 100z"/>
<path d="M2513 3776 l-28 -24 -3 -155 c-4 -175 7 -221 52 -233 45 -11 76 4 92
43 12 28 15 70 12 190 l-3 155 -28 24 c-15 13 -37 24 -47 24 -10 0 -32 -11
-47 -24z"/>
<path d="M2473 3270 c-123 -17 -262 -90 -352 -185 -169 -181 -210 -442 -104
-677 33 -74 51 -90 99 -86 27 2 43 11 58 31 20 28 20 28 2 75 -62 159 -68 185
-63 258 10 132 58 237 145 315 210 190 546 141 685 -100 105 -181 82 -388 -62
-544 -64 -69 -71 -106 -27 -144 15 -12 34 -23 42 -23 79 0 221 196 253 350 17
78 15 208 -4 282 -53 205 -221 375 -426 431 -72 20 -170 27 -246 17z"/>
<path d="M2390 2779 c-60 -27 -117 -83 -146 -144 -23 -49 -24 -57 -24 -324 0
-233 -2 -272 -14 -268 -116 45 -238 23 -315 -57 l-31 -32 -61 30 c-78 38 -158
40 -237 6 -66 -28 -135 -103 -153 -165 -9 -32 -18 -44 -28 -40 -86 33 -172 30
-248 -9 -57 -29 -92 -64 -124 -126 -23 -44 -24 -52 -27 -355 -4 -355 6 -474
44 -512 31 -31 74 -30 104 2 23 24 23 25 11 152 -6 71 -11 236 -11 368 0 264
4 286 63 329 34 25 103 27 137 3 47 -33 60 -66 60 -154 0 -71 3 -85 23 -109
30 -35 79 -37 110 -5 21 20 22 32 27 219 5 212 9 225 61 256 54 32 136 14 170
-38 10 -15 15 -66 19 -173 5 -143 6 -153 29 -177 29 -31 69 -34 102 -7 23 19
24 25 29 204 l5 186 30 31 c43 45 93 57 141 34 75 -38 78 -49 84 -289 6 -241
8 -249 76 -249 26 0 42 7 55 23 18 22 19 51 19 582 0 607 0 604 55 647 60 47
147 32 186 -32 18 -30 19 -65 19 -793 0 -537 3 -769 11 -786 11 -24 47 -47 74
-47 8 0 27 11 42 24 l28 24 -1 789 c0 773 -1 789 -21 834 -62 138 -239 209
-373 148z"/>
<path d="M2908 1805 c-75 -24 -98 -94 -47 -141 15 -13 28 -15 66 -9 76 12 120
8 154 -11 78 -46 98 -130 55 -226 -33 -75 -54 -190 -66 -373 -17 -255 -48
-390 -127 -552 -81 -168 -217 -284 -368 -313 -41 -8 -184 -10 -460 -8 l-400 3
-67 26 c-186 72 -315 198 -414 402 -46 97 -85 118 -138 76 -37 -29 -34 -73 10
-162 102 -202 241 -344 420 -428 152 -72 169 -74 624 -74 446 0 473 3 602 65
278 132 448 479 473 965 8 159 22 235 56 323 67 169 15 333 -131 411 -74 39
-168 49 -242 26z"/>
</g>
</svg>
